<?xml version="1.0" encoding="UTF-8"?>
<svg version="1.1" xmlns="http://www.w3.org/2000/svg" width="4259" height="4261">
<path d="M0 0 C6.08296255 0.00816684 12.16590465 -0.00138942 18.24886502 -0.00851054 C28.91769566 -0.0186246 39.58647449 -0.01784096 50.25530232 -0.00945991 C61.74605042 -0.00049411 73.2367722 0.00174217 84.72752274 -0.00383255 C85.82626828 -0.00435945 85.82626828 -0.00435945 86.9472107 -0.004897 C90.68819383 -0.00671987 94.4291769 -0.00864649 98.17015996 -0.01060784 C125.3985798 -0.02465594 152.62698385 -0.02399509 179.85540522 -0.0157652 C207.43439832 -0.00747436 235.01338044 -0.00575442 262.59237421 -0.01197721 C263.46376543 -0.01217075 264.33515664 -0.01236429 265.23295364 -0.0125637 C273.21929725 -0.01433844 281.20564084 -0.01618016 289.19198442 -0.01810233 C309.21462294 -0.02291361 329.23726159 -0.02668214 349.25990046 -0.02974345 C350.63585652 -0.0299545 350.63585652 -0.0299545 352.03960966 -0.03016982 C397.21053412 -0.03699914 442.3814566 -0.03240075 487.55238093 -0.02665998 C489.53006167 -0.02640907 491.50774242 -0.02615817 493.48542317 -0.02590729 C494.46557499 -0.02578293 495.44572681 -0.02565856 496.4555802 -0.02553042 C509.38201723 -0.02389077 522.30845426 -0.02228094 535.2348913 -0.02075054 C536.22304224 -0.02063305 537.21119318 -0.02051557 538.22928809 -0.02039453 C584.05647998 -0.01498668 629.88367088 -0.0162777 675.71086291 -0.0190419 C680.71286386 -0.0193413 685.71486481 -0.01962779 690.71686576 -0.01991573 C705.79412889 -0.02078753 720.87139202 -0.02167835 735.94865515 -0.02260853 C781.92343627 -0.02544188 827.8982174 -0.02724277 873.8729986 -0.02815343 C874.89659166 -0.02817404 875.92018472 -0.02819464 876.97479574 -0.02821587 C943.24803344 -0.02953176 1009.52127003 -0.0262315 1075.79450739 -0.0196047 C1077.38108846 -0.01944666 1077.38108846 -0.01944666 1078.99972167 -0.01928544 C1114.42635916 -0.01575656 1149.85299663 -0.01198828 1185.27963409 -0.00819555 C1292.40457511 0.00326532 1399.52951218 0.00954657 1590.84283447 -0.00854154 C1626.26060401 -0.01233127 1661.67837356 -0.01607689 1697.09614313 -0.0196047 C1698.1535679 -0.01971043 1699.21099267 -0.01981616 1700.30046062 -0.0199251 C1766.53952453 -0.0265428 1832.77858768 -0.02948685 1899.01765192 -0.02815343 C1900.55252699 -0.02812303 1900.55252699 -0.02812303 1902.11840963 -0.02809201 C1948.067822 -0.02717178 1994.01723429 -0.02525671 2039.96664658 -0.02242192 C2055.03718612 -0.02149331 2070.10772566 -0.0206103 2085.1782652 -0.01974278 C2090.1773788 -0.0194548 2095.17649239 -0.01916274 2100.17560599 -0.0188612 C2146.00232423 -0.01610545 2191.82904115 -0.01530212 2237.65575922 -0.02075054 C2239.13704265 -0.02092591 2239.13704265 -0.02092591 2240.64825099 -0.02110483 C2253.56724312 -0.02264011 2266.48623524 -0.02426805 2279.40522736 -0.02590729 C2280.38460182 -0.02603153 2281.36397629 -0.02615577 2282.37302877 -0.02628378 C2284.34890587 -0.02653446 2286.32478297 -0.02678535 2288.30066008 -0.02703647 C2333.41069083 -0.03275457 2378.52071924 -0.03666282 2423.63075007 -0.02974345 C2424.5468413 -0.02960338 2425.46293254 -0.02946332 2426.40678411 -0.02931901 C2446.39700324 -0.02622793 2466.3872221 -0.02226889 2486.37744089 -0.0174576 C2494.35105268 -0.01555004 2502.32466449 -0.0137482 2510.29827631 -0.01197721 C2511.16803423 -0.01178096 2512.03779214 -0.01158471 2512.93390635 -0.01138252 C2540.47506201 -0.00521723 2568.01620631 -0.00820311 2595.55736112 -0.01652752 C2622.69874559 -0.02469021 2649.84011228 -0.02365225 2676.98149478 -0.00942243 C2680.70870574 -0.00746933 2684.43591674 -0.00561994 2688.16312779 -0.00383255 C2688.89272796 -0.00347858 2689.62232813 -0.00312462 2690.3740374 -0.00275993 C2701.82230835 0.00252432 2713.27055187 -0.00210326 2724.71881959 -0.01109661 C2735.95293604 -0.01971396 2747.1870089 -0.01723761 2758.42112468 -0.00408619 C2764.38797201 0.00259857 2770.35471774 0.00483085 2776.32156033 -0.00653574 C2802.52544308 -0.05302129 2828.37805919 0.59718196 2854.44532526 3.38222598 C2855.4847244 3.49176871 2856.52412354 3.60131145 2857.59501962 3.71417366 C2862.86958316 4.27698035 2868.12770373 4.91042569 2873.38282526 5.63222598 C2874.145628 5.7348273 2874.90843073 5.83742861 2875.6943487 5.94313906 C2953.21170141 16.4373228 3028.80327027 39.43710659 3151.44532526 101.38222598 C3152.46175104 101.98711856 3153.47817683 102.59201113 3154.52540339 103.21523379 C3200.11667693 130.49525812 3242.91382468 162.45243386 3281.71485651 198.76503848 C3283.57879734 200.50696061 3285.44938576 202.24157446 3287.32032526 203.97597598 C3309.79080148 224.85771294 3309.79080148 224.85771294 3318.94141901 235.65956973 C3320.53638525 237.48653105 3322.21550368 239.18281884 3323.94532526 240.88222598 C3327.65729086 244.54502647 3331.05433264 248.4228749 3334.44532526 252.38222598 C3335.37608092 253.46055293 3336.30709063 254.53866063 3337.23829401 255.61660098 C3375.7471319 300.27125629 3409.35864296 348.9715522 3436.44532526 401.38222598 C3436.76243464 401.99453066 3437.07954401 402.60683535 3437.40626276 403.23769473 C3470.98271888 468.13448145 3494.32524541 537.22772998 3508.13282526 608.94472598 C3508.27158076 609.65559359 3508.41033625 610.36646121 3508.55329645 611.09887026 C3509.42447432 615.59070608 3510.21458736 620.09161106 3510.97047211 624.60417247 C3511.28393512 626.43803839 3511.60931577 628.26991199 3511.94729742 630.09941784 C3516.32111756 654.09447804 3516.01555967 678.05007287 3515.95753111 702.35882838 C3515.94707758 708.62912841 3515.9601226 714.89939058 3515.97000847 721.16968553 C3515.98418275 732.17969402 3515.98374154 743.18962242 3515.97325189 754.19963378 C3515.96202888 766.06377692 3515.95971803 777.92787431 3515.96785724 789.79202047 C3515.96862594 790.92454442 3515.96862594 790.92454442 3515.96941016 792.07994764 C3515.97206555 795.93563541 3515.97485903 799.79132307 3515.97769853 803.6470107 C3515.99808473 831.74305202 3515.99879248 859.83906728 3515.98943842 887.93511294 C3515.98001989 916.40072989 3515.97932756 944.86632745 3515.98922289 973.33194445 C3515.98968531 974.68009219 3515.98968531 974.68009219 3515.99015707 976.05547523 C3515.99298313 984.29247988 3515.99589654 992.52948451 3515.99891512 1000.76648909 C3516.00647182 1021.41934674 3516.01261967 1042.0722047 3516.01780821 1062.72506307 C3516.01804646 1063.67133142 3516.01828471 1064.61759977 3516.01853019 1065.59254292 C3516.03013151 1112.21081912 3516.02642689 1158.82909271 3516.0210718 1205.44736956 C3516.02095596 1206.45749537 3516.02084013 1207.46762119 3516.02072078 1208.50835687 C3516.02025143 1212.59789526 3516.01978119 1216.68743365 3516.0193103 1220.77697204 C3516.01801172 1232.07417614 3516.01675755 1243.37138023 3516.01555885 1254.66858433 C3516.01544981 1255.68859449 3516.01534077 1256.70860465 3516.01522843 1257.75952421 C3516.01021909 1305.04771621 3516.01379528 1352.33590628 3516.0191771 1399.62409809 C3516.01976073 1404.78437785 3516.02032624 1409.94465761 3516.0208925 1415.10493737 C3516.0218032 1423.38758281 3516.02271801 1431.67022826 3516.02363981 1439.9528737 C3516.02375411 1440.97996741 3516.02386841 1442.00706112 3516.02398617 1443.06527888 C3516.02468106 1449.2992949 3516.0253841 1455.53331093 3516.02609154 1461.76732695 C3516.03146596 1509.19779966 3516.03543011 1556.62827243 3516.03815115 1604.05874537 C3516.03821213 1605.11479238 3516.0382731 1606.17083938 3516.03833593 1607.25888782 C3516.04225661 1675.64323561 3516.03980125 1744.0275816 3516.03291167 1812.41192912 C3516.03269082 1814.61744315 3516.03247006 1816.82295719 3516.03224938 1819.02847123 C3516.02980771 1843.37622717 3516.02723499 1867.7239831 3516.02461399 1892.07173902 C3516.02449574 1893.17073858 3516.0243775 1894.26973813 3516.02425567 1895.40204071 C3516.02209561 1915.47432655 3516.02209561 1915.47432655 3516.02101705 1925.40255066 C3516.00901835 2035.9510538 3516.00505157 2146.4995479 3516.0415737 2343.9156965 C3516.04897633 2380.4600848 3516.05630738 2417.0044731 3516.06323088 2453.54886149 C3516.06343814 2454.63990902 3516.0636454 2455.73095655 3516.06385894 2456.85506613 C3516.07682689 2525.19836019 3516.08369198 2593.54165246 3516.0836376 2661.88494776 C3516.08363736 2662.94068282 3516.08363712 2663.99641787 3516.08363687 2665.0841449 C3516.08361165 2712.4921312 3516.08198201 2759.90011733 3516.07885678 2807.30810353 C3516.07776722 2823.88988982 3516.07678123 2840.47167612 3516.07582592 2857.05346242 C3516.07558771 2861.1785708 3516.07534076 2865.30367918 3516.07508671 2869.42878755 C3516.07219424 2916.71583154 3516.07273423 2964.00287165 3516.08402122 3011.28991459 C3516.08426381 3012.30904222 3516.08450639 3013.32816984 3516.08475633 3014.37818012 C3516.08867292 3030.7709891 3516.09284224 3047.16379802 3516.09701478 3063.55660693 C3516.1088442 3110.10955625 3516.11779305 3156.66249943 3516.10875059 3203.21545004 C3516.10856781 3204.16074947 3516.10838504 3205.10604891 3516.10819672 3206.07999379 C3516.10415218 3226.70711988 3516.09867715 3247.33424534 3516.09179859 3267.96137067 C3516.08907474 3276.18894745 3516.08652926 3284.41652428 3516.08403719 3292.64410113 C3516.08376029 3293.54156638 3516.08348339 3294.43903163 3516.0831981 3295.36369279 C3516.07451143 3323.78807394 3516.08110529 3352.21242363 3516.09660532 3380.63680112 C3516.11181199 3408.64601002 3516.11170922 3436.65517198 3516.08961329 3464.66437775 C3516.08658167 3468.50968987 3516.08372338 3472.35500211 3516.08096886 3476.20031443 C3516.08014989 3477.32940527 3516.08014989 3477.32940527 3516.07931437 3478.48130601 C3516.07119379 3490.29852588 3516.07961959 3502.11567091 3516.09531353 3513.93288069 C3516.11036369 3525.52551299 3516.10695426 3537.11800369 3516.08570923 3548.71062961 C3516.07492458 3554.86944576 3516.07160752 3561.02798756 3516.09090947 3567.18678919 C3516.16848057 3593.73140576 3515.22504705 3619.23434277 3510.44532526 3645.38222598 C3510.06614615 3647.55314662 3509.68806871 3649.72426012 3509.31134335 3651.89560791 C3508.40134832 3657.09721056 3507.3811518 3662.27201719 3506.32032526 3667.44472598 C3506.0400297 3668.8286957 3506.0400297 3668.8286957 3505.7540716 3670.24062441 C3492.73677449 3734.21080008 3471.11512451 3794.80941505 3442.44532526 3853.38222598 C3441.98658015 3854.32694766 3441.52783503 3855.27166934 3441.05518854 3856.24501895 C3410.42239643 3919.2645153 3368.90868763 3977.52678357 3321.06251276 4028.65175723 C3319.32059063 4030.51569806 3317.58597678 4032.38628647 3315.85157526 4034.25722598 C3294.9698383 4056.72770219 3294.9698383 4056.72770219 3284.16798151 4065.87831973 C3282.34102019 4067.47328596 3280.6447324 4069.1524044 3278.94532526 4070.88222598 C3275.28252477 4074.59419158 3271.40467634 4077.99123336 3267.44532526 4081.38222598 C3266.36699831 4082.31298164 3265.28889061 4083.24399135 3264.21095026 4084.17519473 C3219.55629495 4122.68403262 3170.85599904 4156.29554368 3118.44532526 4183.38222598 C3117.83302058 4183.69933535 3117.22071589 4184.01644473 3116.58985651 4184.34316348 C3051.55360405 4217.99177671 2982.28103034 4241.41319896 2910.38282526 4255.13222598 C2909.26528361 4255.34676425 2909.26528361 4255.34676425 2908.12516535 4255.56563662 C2902.90785949 4256.56125991 2897.68104127 4257.48880339 2892.44532526 4258.38222598 C2891.6686609 4258.51494087 2890.89199654 4258.64765576 2890.0917969 4258.78439232 C2876.5990735 4261.03402886 2863.4998619 4261.81255472 2849.83715529 4261.76172547 C2847.73152846 4261.76508575 2845.6259034 4261.76975776 2843.520282 4261.77560318 C2837.76188148 4261.78782784 2832.00363079 4261.78157602 2826.24523056 4261.77216558 C2819.94667246 4261.76522211 2813.64813855 4261.77579625 2807.34958539 4261.78406604 C2796.27729125 4261.79620249 2785.20504032 4261.7973142 2774.13274206 4261.79094821 C2762.1954855 4261.78414383 2750.25825528 4261.78396844 2738.32099897 4261.79164634 C2737.56261285 4261.79212992 2736.80422673 4261.7926135 2736.02285922 4261.79311174 C2732.15026249 4261.79560946 2728.27766583 4261.79821 2724.40506918 4261.80084433 C2696.15286044 4261.81983112 2667.90066435 4261.82398476 2639.64845026 4261.82059191 C2611.01660413 4261.81719432 2582.38476962 4261.82029726 2553.75292528 4261.83130931 C2551.92635097 4261.83200528 2550.09977665 4261.8327012 2548.27320233 4261.83339706 C2540.90822926 4261.83621573 2533.54325621 4261.83908462 2526.17828318 4261.84201063 C2505.4181036 4261.85024619 2484.6579237 4261.85738461 2463.89774347 4261.86376654 C2462.94646155 4261.86405919 2461.99517962 4261.86435184 2461.01507097 4261.86465336 C2406.92626474 4261.8811653 2352.83745786 4261.88208207 2298.74864956 4261.88331594 C2290.48092951 4261.88350568 2282.21320947 4261.88370525 2273.94548942 4261.88391759 C2271.87320186 4261.88397067 2269.80091429 4261.8840228 2267.72862673 4261.88407396 C2221.20864254 4261.88523759 2174.68865971 4261.89177443 2128.1686762 4261.89946472 C2117.78432564 4261.90117941 2107.39997508 4261.90284134 2097.01562451 4261.90450662 C2095.46942888 4261.90475467 2095.46942888 4261.90475467 2093.89199697 4261.90500773 C2087.63481454 4261.90601124 2081.37763212 4261.90701254 2075.12044969 4261.90801242 C2071.98589705 4261.90851366 2068.8513444 4261.90901619 2065.71679175 4261.90951883 C2016.98038294 4261.91732438 1968.24397402 4261.92401531 1919.50756491 4261.92956542 C1918.44567485 4261.92968653 1917.38378479 4261.92980764 1916.28971624 4261.92993242 C1848.62508322 4261.93762146 1780.96045096 4261.94031996 1713.29581752 4261.93953142 C1709.96873132 4261.93949316 1706.64164512 4261.93945727 1703.31455891 4261.93942219 C1679.94082928 4261.93917517 1656.56709966 4261.93886704 1633.19337003 4261.93854355 C1626.49172593 4261.93845124 1619.79008183 4261.93836105 1613.08843772 4261.9382711 C1607.49839347 4261.93819582 1601.90834921 4261.93811845 1596.31830496 4261.93803677 C1490.74876424 4261.93650268 1385.17923039 4261.94075164 1279.60969294 4261.969079 C1277.94280042 4261.96952612 1277.94280042 4261.96952612 1276.24223331 4261.96998226 C1241.52127487 4261.97931628 1206.80031665 4261.98941577 1172.07935847 4261.99965762 C1136.45224042 4262.01016213 1100.82512236 4262.02057365 1065.19800413 4262.03045081 C1064.10098018 4262.03075539 1063.00395623 4262.03105996 1061.87368912 4262.03137377 C993.15198259 4262.0504262 924.43027801 4262.06218781 855.70856894 4262.06602477 C854.6469173 4262.06608485 853.58526567 4262.06614493 852.49144277 4262.06620684 C805.86267898 4262.06883302 759.23391528 4262.06979205 712.60515143 4262.06893418 C693.84541266 4262.06859135 675.08567389 4262.06842313 656.32593511 4262.06832422 C653.2155573 4262.06830502 650.10517949 4262.06827778 646.99480168 4262.06824877 C599.44191021 4262.06783949 551.88902504 4262.07186531 504.33613647 4262.0893843 C503.3113432 4262.08976132 502.28654994 4262.09013833 501.23070233 4262.09052677 C484.74672772 4262.09661348 468.26275324 4262.10304566 451.77877878 4262.1095072 C404.96165121 4262.12784401 358.14453211 4262.14295981 311.32740045 4262.13659369 C310.37657882 4262.13646555 309.4257572 4262.13633741 308.44612279 4262.13620538 C287.69756061 4262.13334468 266.94899915 4262.12879649 246.20043771 4262.12259524 C237.92413962 4262.12014642 229.64784147 4262.11791549 221.3715433 4262.11575221 C220.46876489 4262.11551025 219.56598648 4262.1152683 218.63585115 4262.11501901 C190.05050057 4262.10746056 161.46519698 4262.1182699 132.8798546 4262.13980566 C104.70807003 4262.16095148 76.53635076 4262.16372115 48.36456603 4262.14014486 C44.495483 4262.13690946 40.62639983 4262.13388273 36.75731653 4262.13098119 C35.62126016 4262.13011711 35.62126016 4262.13011711 34.46225316 4262.12923558 C22.57986506 4262.12073982 10.69758655 4262.13210117 -1.18478401 4262.152223 C-12.84612085 4262.17155583 -24.50725721 4262.16867479 -36.16858962 4262.14444136 C-42.36203411 4262.13217325 -48.55508455 4262.12880767 -54.74850414 4262.15269343 C-82.63762204 4262.25324165 -109.168204 4260.78028451 -136.55467474 4255.38222598 C-138.59061019 4255.00289099 -140.62699949 4254.62597564 -142.66403155 4254.25257429 C-146.97925665 4253.45803366 -151.2681971 4252.56840488 -155.55467474 4251.63222598 C-156.31053869 4251.46992495 -157.06640264 4251.30762393 -157.84517156 4251.14040469 C-219.15563614 4237.94070268 -277.26658844 4216.9337146 -333.55467474 4189.38222598 C-334.49939642 4188.92348086 -335.4441181 4188.46473574 -336.41746771 4187.99208926 C-399.43696406 4157.35929714 -457.69923233 4115.84558835 -508.82420599 4067.99941348 C-510.68814682 4066.25749135 -512.55873523 4064.52287749 -514.42967474 4062.78847598 C-536.90015095 4041.90673901 -536.90015095 4041.90673901 -546.05076849 4031.10488223 C-547.64573472 4029.2779209 -549.32485316 4027.58163311 -551.05467474 4025.88222598 C-554.76664034 4022.21942548 -558.16368212 4018.34157706 -561.55467474 4014.38222598 C-562.4854304 4013.30389902 -563.41644011 4012.22579132 -564.34764349 4011.14785098 C-602.85648138 3966.49319566 -636.46799244 3917.79289976 -663.55467474 3865.38222598 C-663.87178411 3864.76992129 -664.18889349 3864.1576166 -664.51561224 3863.52675723 C-697.61868242 3799.54493382 -720.9712378 3731.33185078 -734.74040472 3660.63500308 C-735.01939666 3659.20420509 -735.30132335 3657.77397379 -735.58720648 3656.34453677 C-736.70616259 3650.71049002 -737.63579266 3645.05191961 -738.55467474 3639.38222598 C-738.75328067 3638.18741727 -738.95188659 3636.99260856 -739.15651088 3635.76159352 C-743.59476423 3608.65332911 -744.27672498 3581.97359139 -744.19171803 3554.54844387 C-744.1780978 3548.31233451 -744.1940367 3542.07628026 -744.20590227 3535.84017681 C-744.22275355 3524.90443289 -744.22145707 3513.96883584 -744.20748455 3503.03309272 C-744.19253823 3491.25568146 -744.18881657 3479.47834154 -744.19810561 3467.70092367 C-744.19869106 3466.94998029 -744.19927651 3466.1990369 -744.1998797 3465.42533766 C-744.20291784 3461.59010454 -744.20612888 3457.75487159 -744.20939776 3453.91963866 C-744.23280751 3426.00962018 -744.23171163 3398.09964451 -744.21799337 3370.18962191 C-744.20417403 3341.92128679 -744.20130975 3313.65298144 -744.21168005 3285.3846445 C-744.21200262 3284.49138615 -744.21232519 3283.5981278 -744.21265753 3282.67780101 C-744.21561544 3274.49101194 -744.21868498 3266.30422291 -744.22188859 3258.11743394 C-744.22990727 3237.59247816 -744.2361882 3217.06752203 -744.24129044 3196.54256533 C-744.24152495 3195.60226014 -744.24175946 3194.66195495 -744.24200107 3193.69315566 C-744.25338259 3147.39234664 -744.24571958 3101.09154295 -744.23615133 3054.79073428 C-744.23573315 3052.76364656 -744.23531499 3050.73655885 -744.23489685 3048.70947113 C-744.23468957 3047.70483249 -744.2344823 3046.70019384 -744.23426873 3045.6651116 C-744.23153598 3032.41568793 -744.22885292 3019.16626425 -744.22630226 3005.91684054 C-744.22610645 3004.90399495 -744.22591065 3003.89114936 -744.22570891 3002.84761148 C-744.21669537 2955.87270242 -744.21884769 2908.89779602 -744.22345454 2861.92288657 C-744.22395353 2856.79543239 -744.22443102 2851.66797822 -744.22491091 2846.54052404 C-744.22636392 2831.08507022 -744.22784863 2815.62961641 -744.22939891 2800.1741626 C-744.23412114 2753.04632272 -744.23712265 2705.91848282 -744.23864042 2658.79064273 C-744.23867476 2657.74138273 -744.2387091 2656.69212273 -744.23874449 2655.61106698 C-744.24093759 2587.67721088 -744.23543739 2519.74335777 -744.22439253 2451.80950259 C-744.22421693 2450.72529785 -744.22404134 2449.64109311 -744.22386043 2448.52403368 C-744.21797898 2412.21048442 -744.2116985 2375.89693524 -744.20537728 2339.58338606 C-744.18627587 2229.77698613 -744.17580709 2119.97059689 -744.20595394 1923.86834411 C-744.21227017 1887.56387922 -744.21851287 1851.25941433 -744.22439253 1814.95494937 C-744.22456875 1813.87104785 -744.22474497 1812.78714634 -744.22492654 1811.67039933 C-744.23595624 1743.77153556 -744.24086274 1675.87267387 -744.23864042 1607.97380923 C-744.23860664 1606.92490107 -744.23857286 1605.87599292 -744.23853805 1604.79529967 C-744.23700432 1557.6934536 -744.23381253 1510.59160774 -744.22908791 1463.48976188 C-744.22754022 1448.04120545 -744.22606854 1432.59264902 -744.22462266 1417.14409259 C-744.2241427 1412.01959834 -744.22365593 1406.89510409 -744.22315337 1401.77060984 C-744.21856062 1354.79627569 -744.2172211 1307.82194512 -744.22630226 1260.84761141 C-744.22649712 1259.83541035 -744.22669198 1258.82320928 -744.22689274 1257.78033545 C-744.22945154 1244.53855055 -744.23216478 1231.29676569 -744.23489685 1218.05498082 C-744.23510392 1217.05113923 -744.23531099 1216.04729763 -744.23552433 1215.01303659 C-744.23594213 1212.98779811 -744.23636029 1210.96255963 -744.23677881 1208.93732115 C-744.24630929 1162.69884092 -744.25282206 1116.46036705 -744.24129044 1070.22188662 C-744.241057 1069.28282499 -744.24082357 1068.34376335 -744.24058305 1067.3762453 C-744.23543119 1046.88449601 -744.22883274 1026.39274744 -744.22081403 1005.90099908 C-744.21763478 997.72726859 -744.21463171 989.55353803 -744.21168005 981.37980746 C-744.21135297 980.48822239 -744.21102589 979.59663731 -744.2106889 978.67803451 C-744.20041448 950.44864997 -744.20538868 922.21929619 -744.2192639 893.98991395 C-744.23287025 866.16886892 -744.23113478 838.34787206 -744.20742208 810.52683235 C-744.20416694 806.70573111 -744.20108461 802.88462975 -744.19810561 799.06352829 C-744.19751567 798.31555329 -744.19692573 797.56757828 -744.19631791 796.79693737 C-744.18751304 785.06339416 -744.19522053 773.3299253 -744.21021238 761.59639083 C-744.22457968 750.080479 -744.22043992 738.56472463 -744.19852835 727.04881685 C-744.18739198 720.93301914 -744.18365446 714.8174967 -744.20261094 708.70171191 C-744.28184287 681.19355057 -743.1879738 654.52714918 -738.55467474 627.38222598 C-738.42078478 626.59667404 -738.28689483 625.81112211 -738.1489476 625.00176557 C-724.74110706 546.78861466 -699.89325631 472.83127553 -645.55467474 368.38222598 C-644.94978216 367.3658002 -644.34488958 366.34937441 -643.72166692 365.30214785 C-616.44164259 319.71087431 -584.48446685 276.91372656 -548.17186224 238.11269473 C-546.42994011 236.2487539 -544.69532625 234.37816548 -542.96092474 232.50722598 C-522.07918777 210.03674976 -522.07918777 210.03674976 -511.27733099 200.88613223 C-509.45036966 199.29116599 -507.75408187 197.61204756 -506.05467474 195.88222598 C-502.39187424 192.17026038 -498.51402582 188.7732186 -494.55467474 185.38222598 C-493.47634778 184.45147032 -492.39824008 183.52046061 -491.32029974 182.58925723 C-446.66564442 144.08041934 -397.96534852 110.46890828 -345.55467474 83.38222598 C-344.94237005 83.0651166 -344.33006536 82.74800723 -343.69920599 82.42128848 C-269.99935674 44.29028263 -189.84122976 18.18078239 -100.49217474 5.63222598 C-99.79986761 5.53721804 -99.10756048 5.44221011 -98.39427435 5.34432315 C-92.79159677 4.58520215 -87.1771453 3.97476291 -81.55467474 3.38222598 C-80.42060763 3.26106186 -79.28654053 3.13989773 -78.11810776 3.01506197 C-52.06370312 0.31895899 -26.17645068 -0.04986508 0 0 Z " fill="#E61D4E" transform="translate(743.5546747371554,-0.3822259772568941)"/>
<path d="M0 0 C3.49192454 2.74370942 7.01908325 5.44045083 10.55029297 8.13330078 C11.23720215 8.65770752 11.92411133 9.18211426 12.63183594 9.72241211 C14.83306754 11.40203324 17.03529493 13.08034073 19.23779297 14.75830078 C20.06714355 15.39026367 20.89649414 16.02222656 21.75097656 16.67333984 C25.31086657 19.3858263 28.87093375 22.09807981 32.43139648 24.80981445 C40.02081784 30.5906751 47.60082162 36.38376194 55.17724609 42.18164062 C58.69679961 44.87468288 62.21734385 47.56642947 65.73779297 50.25830078 C69.94138743 53.47253141 74.14481883 56.68697333 78.34716797 59.90283203 C86.13733288 65.86348852 93.93428125 71.81512589 101.73779297 77.75830078 C110.22545436 84.22252586 118.70451589 90.69786163 127.17724609 97.18164062 C130.69679961 99.87468288 134.21734385 102.56642947 137.73779297 105.25830078 C141.94138743 108.47253141 146.14481883 111.68697333 150.34716797 114.90283203 C158.13733288 120.86348852 165.93428125 126.81512589 173.73779297 132.75830078 C182.22545436 139.22252586 190.70451589 145.69786163 199.17724609 152.18164062 C202.69679961 154.87468288 206.21734385 157.56642947 209.73779297 160.25830078 C213.94138743 163.47253141 218.14481883 166.68697333 222.34716797 169.90283203 C230.13733288 175.86348852 237.93428125 181.81512589 245.73779297 187.75830078 C254.22545436 194.22252586 262.70451589 200.69786163 271.17724609 207.18164062 C274.69679961 209.87468288 278.21734385 212.56642947 281.73779297 215.25830078 C285.94138743 218.47253141 290.14481883 221.68697333 294.34716797 224.90283203 C302.13733288 230.86348852 309.93428125 236.81512589 317.73779297 242.75830078 C326.22545436 249.22252586 334.70451589 255.69786163 343.17724609 262.18164062 C346.69679961 264.87468288 350.21734385 267.56642947 353.73779297 270.25830078 C357.94138743 273.47253141 362.14481883 276.68697333 366.34716797 279.90283203 C374.13733288 285.86348852 381.93428125 291.81512589 389.73779297 297.75830078 C398.22545436 304.22252586 406.70451589 310.69786163 415.17724609 317.18164062 C418.69679961 319.87468288 422.21734385 322.56642947 425.73779297 325.25830078 C429.94138743 328.47253141 434.14481883 331.68697333 438.34716797 334.90283203 C446.13733288 340.86348852 453.93428125 346.81512589 461.73779297 352.75830078 C470.22545436 359.22252586 478.70451589 365.69786163 487.17724609 372.18164062 C490.69679961 374.87468288 494.21734385 377.56642947 497.73779297 380.25830078 C501.94138743 383.47253141 506.14481883 386.68697333 510.34716797 389.90283203 C518.13733288 395.86348852 525.93428125 401.81512589 533.73779297 407.75830078 C542.22545436 414.22252586 550.70451589 420.69786163 559.17724609 427.18164062 C562.69679961 429.87468288 566.21734385 432.56642947 569.73779297 435.25830078 C573.94138743 438.47253141 578.14481883 441.68697333 582.34716797 444.90283203 C590.13733288 450.86348852 597.93428125 456.81512589 605.73779297 462.75830078 C614.22545436 469.22252586 622.70451589 475.69786163 631.17724609 482.18164062 C634.69679961 484.87468288 638.21734385 487.56642947 641.73779297 490.25830078 C645.94138743 493.47253141 650.14481883 496.68697333 654.34716797 499.90283203 C662.13733288 505.86348852 669.93428125 511.81512589 677.73779297 517.75830078 C684.85086911 523.17563814 691.96272585 528.59453249 699.05932617 534.03344727 C702.55580332 536.71254456 706.05949433 539.38113693 709.57763672 542.03173828 C742.92750955 567.21124702 770.4115121 599.14165919 776.56148107 642.01482153 C778.25160016 656.18715067 778.52208135 670.2757172 778.48947525 684.53164959 C778.49156623 686.87006081 778.4945322 689.20847137 778.49828398 691.54688051 C778.50603027 697.94180366 778.50143426 704.33666594 778.49472808 710.73158803 C778.48916721 716.9802354 778.49508784 723.22887816 778.49968218 729.47752461 C778.50884818 742.40166371 778.50859881 755.32578702 778.50312042 768.24992752 C778.49760698 781.33670305 778.49646599 794.42346821 778.50059509 807.51024437 C778.50085344 808.3385578 778.50111178 809.16687123 778.50137796 810.02028507 C778.50244457 813.39418334 778.50354199 816.7680816 778.50467851 820.14197985 C778.51524302 851.52629266 778.51598088 882.91059852 778.51038361 914.29491234 C778.51021802 915.22384224 778.51005242 916.15277213 778.50988182 917.10985142 C778.50971596 918.04027508 778.5095501 918.97069874 778.50937921 919.92931706 C778.50432991 948.29199847 778.50303143 976.65467701 778.5054245 1005.01735878 C778.50557946 1006.91773842 778.50573377 1008.81811806 778.50588744 1010.7184977 C778.50650839 1018.35558609 778.50714572 1025.99267449 778.50780697 1033.62976288 C778.50964083 1054.97738183 778.51078214 1076.3250008 778.51137924 1097.67261982 C778.51140653 1098.64467347 778.51143383 1099.61672712 778.51146194 1100.61823694 C778.51228029 1131.58428612 778.51002775 1162.5503343 778.50568008 1193.51638317 C778.50546934 1195.02255692 778.50546934 1195.02255692 778.50525433 1196.55915843 C778.50296452 1212.86467842 778.50052556 1229.17019839 778.49807399 1245.47571836 C778.4883604 1310.15023754 778.48881339 1374.82474843 778.49853516 1439.49926758 C778.50097758 1455.80019473 778.5033997 1472.10112189 778.50568008 1488.40204906 C778.50589143 1489.90765784 778.50589143 1489.90765784 778.50610704 1491.44368296 C778.51041993 1522.38057582 778.51224787 1553.317468 778.51137924 1584.25436115 C778.51133849 1585.71130609 778.51133849 1585.71130609 778.51129691 1587.19768427 C778.51067194 1608.51986454 778.50940462 1629.84204475 778.50755824 1651.16422495 C778.50689997 1658.79348066 778.5062738 1666.42273637 778.50565681 1674.05199208 C778.50550204 1675.94990625 778.50534458 1677.84782043 778.50518442 1679.7457346 C778.50279817 1708.10211875 778.5048283 1736.45849966 778.50988182 1764.81488341 C778.5101302 1766.20865084 778.5101302 1766.20865084 778.51038361 1767.63057518 C778.51054897 1768.55803512 778.51071434 1769.48549506 778.51088471 1770.44105985 C778.51640296 1801.73269947 778.51436822 1833.02433076 778.50382212 1864.31596919 C778.50271743 1867.67749958 778.50164402 1871.03902997 778.50059509 1874.40056038 C778.50033468 1875.22552489 778.50007427 1876.05048939 778.49980596 1876.90045282 C778.49586442 1889.95204415 778.49860421 1903.00362511 778.5041331 1916.0552155 C778.50942952 1928.89505829 778.50755588 1941.73488361 778.49810493 1954.57472419 C778.49324395 1961.44019378 778.49145971 1968.30562768 778.49891689 1975.17109599 C778.50539454 1981.42151231 778.50260803 1987.67185467 778.49255557 1993.92226564 C778.49054777 1996.16465294 778.49185622 1998.40704642 778.49696745 2000.6494288 C778.561908 2031.32635383 774.10303922 2059.59913636 759.23779297 2086.75830078 C758.74537109 2087.66966797 758.25294922 2088.58103516 757.74560547 2089.52001953 C746.97692512 2108.41084015 730.7263767 2125.3326583 712.23779297 2136.75830078 C711.28888184 2137.34514648 711.28888184 2137.34514648 710.32080078 2137.94384766 C698.36549684 2145.21484079 685.93607972 2150.46084061 672.55029297 2154.50830078 C671.89810791 2154.70713867 671.24592285 2154.90597656 670.57397461 2155.11083984 C660.0467338 2158.14877148 649.66854896 2159.05289769 638.7476511 2159.01556969 C636.7786499 2159.0208288 636.7786499 2159.0208288 634.76987091 2159.02619416 C631.14415514 2159.03558999 627.51854066 2159.03267185 623.89282012 2159.02763861 C619.94133705 2159.02435727 615.98987495 2159.03266672 612.03839868 2159.03945696 C605.11851113 2159.04974345 598.19865154 2159.05260311 591.2787571 2159.05054474 C580.98807095 2159.04749121 570.69741569 2159.05582658 560.40673555 2159.06629399 C540.95557613 2159.08562664 521.50442727 2159.09126196 502.05325938 2159.09240811 C487.02893234 2159.09332761 472.00460943 2159.09744648 456.98028374 2159.10380936 C452.65363374 2159.10560449 448.32698373 2159.10738411 444.00033373 2159.10915911 C442.92467139 2159.10960121 441.84900905 2159.1100433 440.74075088 2159.1104988 C410.48724029 2159.12280591 380.23373114 2159.13070007 349.98021793 2159.12981224 C348.26957413 2159.1297655 348.26957413 2159.1297655 346.52437187 2159.12971782 C340.74437641 2159.12955161 334.96438095 2159.12935353 329.18438549 2159.12914841 C328.03648635 2159.12910852 326.88858721 2159.12906863 325.70590324 2159.12902753 C323.38457068 2159.12894665 321.06323812 2159.12886306 318.74190556 2159.12877675 C282.63594502 2159.12755158 246.53002206 2159.14255859 210.42407227 2159.16992188 C169.84540463 2159.20066229 129.26676169 2159.21785316 88.68808168 2159.21599543 C84.35860248 2159.21584617 80.02912329 2159.21574876 75.69964409 2159.2156868 C74.63364265 2159.21566349 73.56764122 2159.21564018 72.46933671 2159.21561617 C55.33544519 2159.21555469 38.20158636 2159.22831125 21.06770454 2159.24555133 C3.83776002 2159.26252909 -13.39213682 2159.2644649 -30.62208509 2159.25133269 C-40.84910418 2159.24395759 -51.07597813 2159.2475583 -61.30298176 2159.26721737 C-68.14640475 2159.27925709 -74.98972313 2159.27658213 -81.83314141 2159.26227637 C-85.72443629 2159.25454687 -89.61545126 2159.25286356 -93.5067259 2159.26919107 C-129.15416402 2159.40874913 -162.36631436 2152.81661964 -190.76220703 2129.75830078 C-192.31101562 2128.52853516 -192.31101562 2128.52853516 -193.89111328 2127.27392578 C-223.92865537 2102.97714946 -242.37262221 2067.7685226 -246.54887153 2029.46023005 C-246.97474238 2024.06650547 -246.89981164 2018.66293901 -246.8910082 2013.25559235 C-246.89237845 2011.88911883 -246.89418562 2010.52264569 -246.89638702 2009.15617325 C-246.90117444 2005.39759948 -246.89975587 2001.6390498 -246.89732932 1997.88047471 C-246.89578542 1993.7775062 -246.90004562 1989.67454297 -246.90355608 1985.57157624 C-246.9089286 1978.3516428 -246.91057326 1971.13171588 -246.90980534 1963.9117806 C-246.90867 1953.10301584 -246.91325074 1942.29425866 -246.91893617 1931.48549561 C-246.92844913 1913.06470071 -246.93315544 1894.64390732 -246.93524551 1876.2231102 C-246.93737349 1857.55022951 -246.94163215 1838.87735116 -246.94848824 1820.20447159 C-246.94891885 1819.0258799 -246.94934946 1817.84728822 -246.94979313 1816.63298163 C-246.95155146 1811.83287484 -246.95332111 1807.03276804 -246.95510615 1802.23266125 C-246.97645782 1744.70429833 -246.98738136 1687.17593454 -246.99626838 1629.64756863 C-246.99929227 1610.09660644 -247.00275299 1590.54564437 -247.0065496 1570.99468231 C-247.00667871 1570.32906851 -247.00680783 1569.66345471 -247.00694085 1568.97767079 C-247.00811637 1562.91864734 -247.00929554 1556.85962389 -247.01047812 1550.80060044 C-247.02383348 1482.33342328 -247.03622673 1413.86624575 -247.05123715 1274.38270291 C-247.05176161 1267.86958223 -247.05229892 1261.35646155 -247.05283562 1254.84334087 C-247.05301482 1252.6682548 -247.05319379 1250.49316872 -247.05337271 1248.31808265 C-247.05450977 1234.50049604 -247.05565584 1220.68290943 -247.0568209 1206.86532282 C-247.05712821 1203.21980447 -247.05743415 1199.57428611 -247.05773681 1195.92876776 C-247.06345572 1127.0879669 -247.0726949 1058.24716974 -247.09515381 989.40637207 C-247.09539004 988.68183392 -247.09562626 987.95729577 -247.09586965 987.21080192 C-247.10349746 963.84480729 -247.1115463 940.4788128 -247.11965492 917.11281834 C-247.12746269 894.61335925 -247.13518619 872.11390015 -247.14254475 849.61444092 C-247.14277884 848.89921351 -247.14301292 848.18398611 -247.14325411 847.44708515 C-247.15789481 802.64190887 -247.16769379 757.8367336 -247.17241955 713.03155518 C-247.17249314 712.33936448 -247.17256674 711.64717378 -247.17264256 710.93400761 C-247.17586881 680.53203656 -247.17803704 650.13006552 -247.17902556 619.72809432 C-247.17942637 607.49656111 -247.17995976 595.26502792 -247.18055699 583.03349472 C-247.18065446 581.00548252 -247.18074684 578.97747031 -247.18083837 576.94945811 C-247.1822664 545.94346556 -247.18682778 514.93747775 -247.20071435 483.93148804 C-247.20101342 483.26327077 -247.20131249 482.5950535 -247.20162062 481.90658722 C-247.20644891 471.15810281 -247.2115309 460.40961852 -247.21664662 449.66113424 C-247.23761944 405.58042661 -247.24621907 361.49973685 -247.23652176 317.41902463 C-247.23520334 311.4175321 -247.23402529 305.41603954 -247.23293114 299.41454697 C-247.23271129 298.23810813 -247.23249144 297.06166929 -247.23226493 295.84958079 C-247.2291528 277.23516155 -247.2394686 258.62077505 -247.25540669 240.00636339 C-247.27080649 221.69440406 -247.2718962 203.38248994 -247.25785845 185.07052903 C-247.25006011 174.34065198 -247.25312807 163.6109132 -247.27249561 152.88105003 C-247.28427735 145.7439406 -247.28139584 138.60693162 -247.26688097 131.46982754 C-247.25906936 127.43101529 -247.25719167 123.39247246 -247.27350001 119.35367943 C-247.44906943 72.79802994 -237.36793917 33.64353607 -204.13720703 -0.24169922 C-197.2196072 -7.14564853 -190.03765561 -13.05181076 -181.76220703 -18.24169922 C-181.19824219 -18.5966748 -180.63427734 -18.95165039 -180.05322266 -19.31738281 C-166.85913908 -27.49034279 -152.85658862 -33.5933684 -137.76220703 -37.24169922 C-137.07835938 -37.42361816 -136.39451172 -37.60553711 -135.68994141 -37.79296875 C-84.30307544 -51.32606368 -39.46724329 -31.16809595 0 0 Z " fill="#FEFEFE" transform="translate(2461.76220703125,1019.24169921875)"/>
<path d="M0 0 C5.50138147 4.25936972 10.69570017 8.78388925 15.75 13.5625 C16.49894531 14.25859375 17.24789062 14.9546875 18.01953125 15.671875 C44.00268661 40.6084234 58.24995317 77.01519672 59.09216877 112.74094318 C59.1525839 117.84011255 59.14501814 122.93790677 59.12752342 128.03731441 C59.13065878 130.36767425 59.13510693 132.69803261 59.14073652 135.02838776 C59.15237191 141.41031644 59.14545348 147.79210818 59.13540266 154.17403452 C59.12707077 160.40721872 59.13593913 166.64039238 59.14283381 172.8735745 C59.15659119 185.76795149 59.15620465 198.6622929 59.14799118 211.55667305 C59.1397239 224.6152684 59.13800723 237.67384036 59.14420319 250.73243713 C59.1445907 251.5586624 59.14497822 252.38488766 59.14537748 253.23615005 C59.14697738 256.6014962 59.14862351 259.96684233 59.15032831 263.33218843 C59.16617937 294.6451078 59.1672799 325.9580115 59.15888596 357.27093315 C59.15863757 358.19796715 59.15838918 359.12500115 59.15813327 360.08012709 C59.15788448 361.00865185 59.15763569 361.93717661 59.15737936 362.89383848 C59.14980638 391.19502103 59.14785723 419.4961971 59.1514473 447.79738045 C59.15167973 449.69340472 59.1519112 451.589429 59.15214171 453.48545327 C59.15307313 461.10502099 59.15402913 468.7245887 59.155021 476.3441564 C59.15777187 497.643391 59.15948378 518.94262563 59.16037941 540.24186039 C59.16042035 541.21173738 59.16046128 542.18161438 59.16050346 543.18088158 C59.1617311 574.08033571 59.15835167 604.97978757 59.15183067 635.87924099 C59.15161993 636.88127374 59.15140918 637.88330648 59.15119205 638.91570386 C59.14775731 655.18750411 59.14409887 671.45930431 59.14042152 687.73110451 C59.12585337 752.26223022 59.12652848 816.79333726 59.14111328 881.32446289 C59.14477694 897.58691373 59.14841012 913.84936456 59.15183067 930.11181545 C59.15214769 931.6138795 59.15214769 931.6138795 59.15247111 933.14628827 C59.15894099 964.01297463 59.16168224 994.87965945 59.16037941 1025.74634647 C59.16031828 1027.20011047 59.16031828 1027.20011047 59.16025592 1028.68324343 C59.15931842 1049.95952951 59.15741739 1071.23581543 59.1546479 1092.51210135 C59.1536605 1100.1251248 59.15272126 1107.73814826 59.15179577 1115.35117172 C59.1515636 1117.24504724 59.15132741 1119.13892276 59.15108718 1121.03279828 C59.14750831 1149.32481108 59.15055204 1177.61681659 59.15813327 1205.90882849 C59.15850585 1207.29925529 59.15850585 1207.29925529 59.15888596 1208.71777153 C59.159134 1209.64300839 59.15938205 1210.56824526 59.15963761 1211.5215196 C59.16791711 1242.74623019 59.16485866 1273.97092198 59.14904372 1305.19562989 C59.14738671 1308.55080717 59.14577659 1311.90598448 59.14420319 1315.2611618 C59.14381257 1316.08456349 59.14342195 1316.90796517 59.14301949 1317.75631842 C59.13710966 1330.77751473 59.1412142 1343.79868761 59.1495102 1356.8198818 C59.15745945 1369.63332026 59.15463598 1382.44671932 59.14046794 1395.2601528 C59.13318202 1402.11014557 59.13089225 1408.9600447 59.14168589 1415.81003576 C59.15141608 1422.04879017 59.14720312 1428.28737805 59.13214391 1434.52612045 C59.12913697 1436.76203547 59.13108215 1438.99796446 59.13876172 1441.23386831 C59.20108631 1460.77542982 57.46594272 1479.10439731 50.75 1497.5625 C50.30785156 1498.80386719 49.86570312 1500.04523438 49.41015625 1501.32421875 C36.10977534 1536.58312327 8.99036992 1565.02234345 -25.16113281 1580.62451172 C-25.85045898 1580.93404785 -26.53978516 1581.24358398 -27.25 1581.5625 C-27.94963867 1581.87848145 -28.64927734 1582.19446289 -29.37011719 1582.52001953 C-41.30940705 1587.80200468 -53.34865933 1590.69263309 -66.25 1592.5625 C-67.35609356 1592.73229767 -68.46218711 1592.90209535 -69.60179865 1593.07703841 C-75.44499962 1593.79696723 -81.29246065 1593.70535678 -87.17151451 1593.69951439 C-88.47131512 1593.70216622 -89.77111573 1593.70481804 -91.11030424 1593.70755023 C-94.71858918 1593.71475866 -98.32685327 1593.71577952 -101.93514444 1593.715773 C-105.86087785 1593.71684524 -109.78660212 1593.7236395 -113.71233046 1593.7296797 C-121.4990858 1593.74073901 -129.28583664 1593.74639989 -137.07259845 1593.75038858 C-146.40011292 1593.75540353 -155.72761869 1593.76613208 -165.05512801 1593.77687032 C-188.67404719 1593.80370342 -212.2929705 1593.81875502 -235.91190046 1593.83221143 C-242.31188293 1593.83588273 -248.71186517 1593.83988559 -255.1118474 1593.8439641 C-294.85969034 1593.86922878 -334.60753371 1593.89127073 -374.35538292 1593.90369225 C-383.56276832 1593.90661344 -392.7701537 1593.90958099 -401.97753906 1593.91259766 C-403.12141027 1593.91296857 -404.26528147 1593.91333947 -405.44381544 1593.91372162 C-442.50653153 1593.92586924 -479.56920004 1593.95680062 -516.6318938 1593.99851918 C-554.75359851 1594.0413513 -592.87527811 1594.06793898 -630.99700753 1594.07316696 C-636.38691725 1594.07390735 -641.77682693 1594.07481802 -647.1667366 1594.07582474 C-648.22745432 1594.07601535 -649.28817204 1594.07620597 -650.38103272 1594.07640236 C-667.41746706 1594.07990916 -684.45384163 1594.10017589 -701.49025406 1594.12662137 C-718.63339963 1594.15283007 -735.77647648 1594.16046643 -752.91963921 1594.14952008 C-763.09007817 1594.14356536 -773.26028319 1594.15133802 -783.43068651 1594.17935092 C-790.24290922 1594.19671686 -797.05497402 1594.19555859 -803.86720044 1594.17998323 C-807.73669807 1594.17164415 -811.60575227 1594.17072578 -815.47520714 1594.19259469 C-859.06109781 1594.42362647 -897.10967151 1583.99002101 -929.25 1553.5625 C-930.13429688 1552.74265625 -931.01859375 1551.9228125 -931.9296875 1551.078125 C-954.58292609 1529.38748862 -966.91629029 1501.05938033 -972.25 1470.5625 C-972.50596811 1469.21646769 -972.50596811 1469.21646769 -972.76710729 1467.8432428 C-973.26869513 1464.43548643 -973.37614019 1461.21944401 -973.3776505 1457.77569336 C-973.37930128 1457.11370544 -973.38095206 1456.45171752 -973.38265286 1455.76966937 C-973.38696992 1453.54937127 -973.38417903 1451.32913976 -973.38142776 1449.10883999 C-973.38307777 1447.49486673 -973.38516422 1445.88089386 -973.38764787 1444.26692167 C-973.39321956 1439.81348933 -973.39254118 1435.36007619 -973.39087028 1430.90664148 C-973.39014 1426.06830753 -973.39516022 1421.22997903 -973.3994453 1416.3916474 C-973.40703151 1406.7869071 -973.40921867 1397.18217237 -973.40977435 1387.57742939 C-973.4106874 1376.07586038 -973.41735327 1364.57429653 -973.42412117 1353.07272974 C-973.44019105 1325.26890672 -973.44608592 1297.46508425 -973.45086992 1269.66125743 C-973.45320524 1256.5079213 -973.45680785 1243.3545856 -973.4605653 1230.2012498 C-973.47320148 1185.88271941 -973.48401403 1141.56418915 -973.48740576 1097.24565699 C-973.487568 1095.1272564 -973.48773356 1093.00885581 -973.48790014 1090.89045522 C-973.48823394 1086.64201669 -973.48856442 1082.39357816 -973.4888947 1078.14513963 C-973.4892816 1073.1713221 -973.4896712 1068.19750457 -973.49006577 1063.22368704 C-973.49017818 1061.80014312 -973.4902896 1060.3765992 -973.49040002 1058.95305528 C-973.49394776 1013.25547167 -973.50901832 967.5579038 -973.53233776 921.86032619 C-973.54908666 889.02530835 -973.56455764 856.1902935 -973.56907272 823.35527134 C-973.56916621 822.67952506 -973.5692597 822.00377878 -973.56935601 821.30755533 C-973.57128471 807.13697418 -973.57249192 792.96639305 -973.57283698 778.79581177 C-973.57300113 772.15903099 -973.57326054 765.52225021 -973.57357025 758.88546944 C-973.57362602 757.57930397 -973.57368179 756.2731385 -973.57373925 754.92739226 C-973.57488945 733.91577369 -973.585909 712.90417141 -973.60045731 691.89255834 C-973.61483217 670.76580887 -973.61805373 649.63908027 -973.61001733 628.51232725 C-973.60556547 615.96582348 -973.60940394 603.41938712 -973.62525584 590.87289223 C-973.63502408 582.48315512 -973.63380996 574.0934651 -973.62381961 565.7037284 C-973.61844085 560.9291851 -973.61767446 556.15477099 -973.63032833 551.38023853 C-973.74843544 503.76530394 -965.41336899 462.95357586 -931 427.875 C-918.03252862 415.05488625 -903.13890796 406.30947506 -887.25 397.5625 C-885.55810129 396.62601922 -883.86620904 395.68952668 -882.17456055 394.75259399 C-876.67331586 391.70642121 -871.16631049 388.6708169 -865.65625 385.640625 C-858.63544961 381.77907044 -851.62793442 377.89386862 -844.625 374 C-843.51946777 373.38535889 -842.41393555 372.77071777 -841.27490234 372.13745117 C-839.04746017 370.89888148 -836.8200837 369.66019361 -834.59277344 368.42138672 C-828.97953858 365.2999165 -823.3646646 362.18139751 -817.75 359.0625 C-816.63753906 358.44439453 -815.52507812 357.82628906 -814.37890625 357.18945312 C-808.72990324 354.05075447 -803.08033144 350.91308736 -797.4296875 347.77734375 C-786.52555983 341.72505271 -775.62810578 335.66145694 -764.75 329.5625 C-752.73696432 322.82722928 -740.6995583 316.13633214 -728.65722656 309.45361328 C-723.02048032 306.32504948 -717.3853159 303.19363923 -711.75 300.0625 C-709.50000768 298.81248618 -707.25000768 297.56248618 -705 296.3125 C-703.88625 295.69375 -702.7725 295.075 -701.625 294.4375 C-529.50000001 198.81250001 -529.50000001 198.81250001 -526.12451172 196.93725586 C-523.87610861 195.68812495 -521.62773618 194.43893881 -519.37939453 193.18969727 C-513.7302133 190.05094509 -508.0804904 186.91317557 -502.4296875 183.77734375 C-491.52555983 177.72505271 -480.62810578 171.66145694 -469.75 165.5625 C-457.73696432 158.82722928 -445.6995583 152.13633214 -433.65722656 145.45361328 C-428.02048032 142.32504948 -422.3853159 139.19363923 -416.75 136.0625 C-414.50000768 134.81248618 -412.25000768 133.56248618 -410 132.3125 C-408.88625 131.69375 -407.7725 131.075 -406.625 130.4375 C-340.25 93.5625 -273.875 56.6875 -207.5 19.8125 C-206.3857666 19.19342773 -205.2715332 18.57435547 -204.12353516 17.93652344 C-201.87860227 16.68944681 -199.63348571 15.44270078 -197.38818359 14.19628906 C-191.68408775 11.02927837 -185.9835227 7.85618272 -180.2890625 4.671875 C-169.82102132 -1.17665729 -159.34099413 -7.00136111 -148.75 -12.625 C-147.94449707 -13.05844727 -147.13899414 -13.49189453 -146.30908203 -13.93847656 C-136.91820748 -18.87196751 -127.28112179 -21.89570937 -116.9375 -24.125 C-115.98810547 -24.33705078 -115.03871094 -24.54910156 -114.06054688 -24.76757812 C-74.71843389 -33.47061359 -32.42296428 -23.74930505 0 0 Z " fill="#FEFEFE" transform="translate(2079.25,1044.4375)"/>
<path d="M0 0 C1.36565143 -0.001651 2.73130239 -0.0037379 4.09695256 -0.0062201 C7.85622141 -0.01177894 11.61546745 -0.01111577 15.3747391 -0.00944251 C19.46226647 -0.00871098 23.54978743 -0.01373538 27.63731205 -0.01801753 C35.74746034 -0.02559634 43.85760204 -0.02779053 51.96775349 -0.02834659 C61.68108836 -0.02926035 71.39441713 -0.0359283 81.10774938 -0.04269341 C104.58576392 -0.05875495 128.0637778 -0.06465697 151.54179685 -0.06944216 C162.64905092 -0.07177806 173.75630447 -0.07538071 184.86355814 -0.07913754 C222.88636359 -0.09197348 260.90916875 -0.10269239 298.93197632 -0.10614014 C301.31894499 -0.10636177 303.70591367 -0.10658355 306.09288234 -0.10680549 C308.48561359 -0.10702613 310.87834484 -0.10724661 313.27107608 -0.10746694 C318.07129725 -0.10790949 322.87151841 -0.1083566 327.67173958 -0.10880661 C328.86191578 -0.108916 330.05209199 -0.10902539 331.27833414 -0.1091381 C369.86568094 -0.11276834 408.45300895 -0.12868694 447.04034855 -0.15199697 C487.83880978 -0.17659764 528.63726028 -0.1903131 569.43572915 -0.19150805 C573.91518792 -0.19167951 578.39464669 -0.19189494 582.87410545 -0.19214249 C584.52855376 -0.19222614 584.52855376 -0.19222614 586.21642527 -0.19231148 C603.96041674 -0.19346176 621.70438891 -0.20448181 639.44837386 -0.21902954 C657.28712426 -0.23340194 675.12584994 -0.23662733 692.96460454 -0.22858956 C703.5590102 -0.22413675 714.15333604 -0.22798002 724.7477312 -0.24382807 C731.83111339 -0.25359285 738.9144398 -0.25238551 745.9978215 -0.24239184 C750.02950449 -0.23701062 754.06103445 -0.23625463 758.09270464 -0.24890056 C776.48743743 -0.30301355 794.32389962 -0.34028616 811.89537239 5.88142776 C812.63674446 6.1381929 813.37811653 6.39495804 814.14195442 6.65950394 C843.53345363 17.15646794 866.06613963 39.38675722 879.43443489 67.26814651 C885.91189032 81.83248649 888.86195466 96.28315089 888.84831429 112.16011429 C888.85277097 113.79502186 888.85277097 113.79502186 888.85731769 115.46295786 C888.8659687 119.10440881 888.8675099 122.74582674 888.8690052 126.38728714 C888.87363597 129.00286809 888.87866098 131.61844837 888.88405037 134.23402786 C888.89759466 141.33357387 888.90365249 148.4331142 888.90806103 155.53267097 C888.91083044 159.97251758 888.91506908 164.41236204 888.9195652 168.85220718 C888.93175347 181.16415902 888.9420532 193.47610913 888.94544029 205.78806686 C888.94565986 206.57508072 888.94587942 207.36209457 888.94610564 208.17295733 C888.94632392 208.96177124 888.9465422 209.75058515 888.94676709 210.56330252 C888.94721055 212.16153177 888.94765711 213.75976102 888.94810677 215.35799026 C888.9483282 216.15075404 888.94854963 216.94351782 888.94877777 217.76030475 C888.95272159 230.59153495 888.97016487 243.42270821 888.99346629 256.25391644 C889.01724028 269.45279406 889.02964491 282.65164319 889.03080821 295.85054255 C889.03172165 303.25098049 889.03739 310.65134425 889.05562782 318.05176163 C889.0711108 324.35620676 889.07610142 330.66055479 889.06788972 336.96501535 C889.06401176 340.17515888 889.06643979 343.38506872 889.07894707 346.59519577 C889.13998743 363.24739341 888.65941291 378.89886783 882.58287239 394.63142776 C882.13500374 395.81188675 882.13500374 395.81188675 881.67808723 397.01619339 C876.68817775 409.70664348 869.96553979 421.07817957 860.70787239 431.13142776 C860.22834114 431.65333694 859.74880989 432.17524612 859.25474739 432.71297073 C845.35802874 447.66685769 829.13297021 457.52297856 810.02037239 464.50642776 C809.38067513 464.74514603 808.74097786 464.98386429 808.08189583 465.22981644 C797.24148992 468.98592199 785.92806833 469.42552603 774.56140709 469.38311005 C773.17610816 469.38520139 771.79081033 469.38816763 770.4055149 469.39191878 C766.61969583 469.39965993 762.83397966 469.39507188 759.04816239 469.38836287 C754.92157026 469.38326834 750.79499334 469.38981763 746.66840339 469.39484954 C739.44296569 469.4020601 732.2175579 469.40186167 724.99211884 469.39675522 C714.24775044 469.38918249 703.50340723 469.39306173 692.759039 469.39917183 C673.56946038 469.40969853 654.37989508 469.40879253 635.1903152 469.40301401 C618.39967518 469.39798267 601.60904005 469.39666961 584.81839943 469.3990593 C583.70459001 469.39921207 582.59078059 469.39936484 581.44321937 469.39952224 C576.92193505 469.40014491 572.40065073 469.40078171 567.87936642 469.40144176 C525.47178726 469.40755901 483.0642166 469.40201373 440.65663875 469.39124797 C402.97302849 469.38175423 365.28943175 469.3826083 327.60582161 469.39216995 C285.26970676 469.4028762 242.93359941 469.40712779 200.5974834 469.40094543 C196.08568303 469.40030398 191.57388266 469.3996783 187.06208229 469.3990593 C185.95115747 469.39890114 184.84023264 469.39874299 183.69564343 469.39858004 C166.91203103 469.39630411 150.12842404 469.39896742 133.34481239 469.4040184 C114.26621291 469.40973142 95.18762884 469.40831887 76.10903129 469.39745691 C65.42850362 469.39157698 54.7480093 469.39121165 44.06748248 469.39874926 C36.93711355 469.40322699 29.80677142 469.40045565 22.67640647 469.39173973 C18.61145849 469.38697351 14.54657688 469.38537347 10.48163095 469.39255169 C6.78277973 469.39901694 3.08405371 469.39626077 -0.61478841 469.38619037 C-2.56977718 469.38323005 -4.52477333 469.39005775 -6.47975093 469.39729893 C-13.08552476 469.36904861 -18.90588203 468.83350511 -25.29212761 467.13142776 C-26.23958855 466.94322464 -27.18704948 466.75502151 -28.16322136 466.56111526 C-55.60915459 460.62911752 -80.6704581 441.74452868 -95.91712761 418.44392776 C-107.59666636 399.93391075 -114.63736765 378.89460362 -114.55282402 356.90729141 C-114.55664957 355.8325351 -114.56047511 354.75777879 -114.56441659 353.6504541 C-114.57466837 350.07822447 -114.5707693 346.50615793 -114.56678581 342.933918 C-114.57113673 340.36054715 -114.57632114 337.78717761 -114.58227348 335.21380997 C-114.59497814 328.96546518 -114.59681932 322.71716346 -114.59447322 316.46880793 C-114.5926844 311.38340767 -114.59445175 306.2980204 -114.59869766 301.21262169 C-114.59959045 300.12360974 -114.59959045 300.12360974 -114.60050127 299.01259755 C-114.60171313 297.53726959 -114.60292727 296.06194162 -114.60414364 294.58661366 C-114.61500381 280.77042163 -114.61286448 266.95425404 -114.6067588 253.13806064 C-114.6015964 240.5346961 -114.61282989 227.93140901 -114.63185702 215.32805979 C-114.6512936 202.35281494 -114.65948091 189.37760662 -114.65573376 176.40234715 C-114.65382983 169.13156369 -114.65622947 161.86084603 -114.6704483 154.59007454 C-114.68369946 147.74537081 -114.68102347 140.90082345 -114.66803741 134.05611992 C-114.66568533 131.55614417 -114.66835669 129.05615737 -114.67666054 126.55619431 C-114.78828054 90.31342404 -106.22467875 58.77928664 -80.45619011 32.20174026 C-58.98114559 10.88626264 -29.96515603 -0.04212736 0 0 Z " fill="#FED02E" transform="translate(1241.292127609253,2708.8685722351074)"/>
</svg>
