<svg width="36" height="36" viewBox="0 0 36 36" fill="none" xmlns="http://www.w3.org/2000/svg">
<path d="M27 15C27 11.8174 25.7357 8.76516 23.4853 6.51472C21.2348 4.26428 18.1826 3 15 3C11.8174 3 8.76516 4.26428 6.51472 6.51472C4.26428 8.76516 3 11.8174 3 15C3 22.4895 11.3085 30.2895 14.0985 32.6985C14.3586 32.8935 14.6749 32.9988 15 32.9985M27 33V28.5M22.5 33C22.1022 33 21.7206 32.842 21.4393 32.5607C21.158 32.2794 21 31.8978 21 31.5V25.5C21 25.2531 21.0609 25.01 21.1773 24.7923C21.2937 24.5746 21.4621 24.389 21.6675 24.252L26.1675 21.252C26.414 21.0875 26.7037 20.9998 27 20.9998C27.2963 20.9998 27.586 21.0875 27.8325 21.252L32.3325 24.252C32.5379 24.389 32.7063 24.5746 32.8227 24.7923C32.9391 25.01 33 25.2531 33 25.5V31.5C33 31.8978 32.842 32.2794 32.5607 32.5607C32.2794 32.842 31.8978 33 31.5 33H22.5ZM19.5 15C19.5 17.4853 17.4853 19.5 15 19.5C12.5147 19.5 10.5 17.4853 10.5 15C10.5 12.5147 12.5147 10.5 15 10.5C17.4853 10.5 19.5 12.5147 19.5 15Z" stroke="black" stroke-width="2" stroke-linecap="round" stroke-linejoin="round"/>
</svg>
